<svg version="1.1" xmlns="http://www.w3.org/2000/svg" xmlns:xlink="http://www.w3.org/1999/xlink" width="310px" height="69.1px" viewBox="0,0,256,57.0625"><g fill="#c81c1c" fill-rule="nonzero" stroke="none" stroke-width="1" stroke-linecap="butt" stroke-linejoin="miter" stroke-miterlimit="10" stroke-dasharray="" stroke-dashoffset="0" font-family="none" font-weight="none" font-size="none" text-anchor="none" style="mix-blend-mode: normal"><g transform="translate(0.01046,-0.04165) scale(0.82581,0.82581)"><path d="M127.5,0h-123.9c-2,0 -3.6,1.5 -3.6,3.5v62.3c0,1.8 1.6,3.4 3.6,3.4h123.7c2,0 3.6,-1.5 3.6,-3.5v-62.2c0.1,-2 -1.5,-3.5 -3.4,-3.5zM31.9,33.2l-20.1,-19.4h20.2v19.4zM90.2,55.1h-15.1l-19.3,-21.3v21.3h-15.2v-41.3h15.1l19.3,21.3v-21.3h15.1v41.3h0.1v0zM98.8,55.1v-19.4l20.3,19.3l-20.3,0.1z"></path><path d="M308.3,62.5h-169.2c-0.3,0 -0.6,-0.3 -0.6,-0.6v0c0,-0.3 0.3,-0.6 0.6,-0.6h169.3c0.3,0 0.6,0.3 0.6,0.6v0c0,0.4 -0.3,0.6 -0.7,0.6z"></path><text x="138.84473" y="16.9425" transform="scale(0.9931,1)" font-family="Impact" font-weight="400" font-size="11.8728" text-anchor="start">БЛАНК ДОКУМЕНТА</text><text x="143.60206" y="39.1637" transform="scale(0.9602,1)" font-family="Impact" font-weight="400" font-size="18.1427" text-anchor="start">СЛУЖБА БЕЗОПАСНОСТИ</text><text x="143.60206" y="57.8395" transform="scale(0.9602,1)" font-family="Impact" font-weight="400" font-size="15.551" text-anchor="start">NanoTrasen</text></g></g></svg>